<svg xmlns="http://www.w3.org/2000/svg" width="476" height="406" viewBox="0 0 476 406"><g><g><path fill="#ecf3ff" d="M129.906 28.428c20.092-37.502 64.838-33.888 79.848-10.795 10.631 16.356 33.558 12.992 52.104 6.59 18.254-6.3 49.354-12.354 74.125-4.824 21.636 6.576 30.514 30.3 50.236 28.842 43.026-3.184 64.716 39.293 56.924 57.818-5.087 12.092-7.612 25.617-3.476 38.059 4.554 13.703 14.96 24.552 23.367 36.33 8.408 11.78 15.181 26.507 11 40.327-3.576 11.825-14.246 20.006-20.87 30.463-20.569 32.475-.222 82.243-27.628 109.31-19.618 19.376-51.603 14.903-79.053 18.602-22.89 3.084-44.433 12.697-67.22 16.463-46.148 7.627-92.75-9.172-139.534-9.647-16.479-.166-33.266 1.669-49.227-2.395-21.295-5.421-39.417-21.806-46.806-42.318-10.194-28.306-.535-61.062-12.052-88.865C22.261 229.738-.684 211.312.76 186.87c.9-15.215 11.294-27.943 18.444-41.44 10.625-20.057-3.444-99.358 81.21-93.693 15.62 1.046 22.154-9.612 29.493-23.31zM236.59 14.996c4.106 0 13.35-1.295 13.35 3.73 0 3.145 0 8.542-13.35 7.66-4.096-.271-7.434-2.55-7.434-5.695 0-3.145 3.33-5.695 7.434-5.695zM372.166 39.28c-4.697-3.878 6.698-6.748 9.282-5.295.416.234.632.697.883 1.1.864 1.392 2.36 2.28 3.886 2.9.894.363 1.856.678 2.516 1.377 1.048 1.113.921 3.098-.262 4.07-.956.784-2.305.863-3.545.8-4.64-.238-9.19-2.003-12.76-4.952zm22.74 5.032c-1.176-.406-2.356-2.015-.792-3.081 1.564-1.065 3.583-.451 5.14.382.338.18.685.425.783.793.204.765-.727 1.308-1.486 1.554-1.182.383-2.47.757-3.645.352zM449.2 151.576c-.43-3.756 2.893-6.708 3.958-10.081 1.156-3.665 3.892-5.487 8.03-3.4 2.47 1.246 4.19 3.56 5.665 5.883 2.381 3.75 4.43 8.037 3.93 12.439-.366 3.209-2.149 6.235-4.79 8.128-1.084.777-2.364 1.382-3.702 1.336-1.468-.051-2.793-.872-3.932-1.79-2.693-2.171-4.765-4.988-6.805-7.77-1.058-1.443-2.15-2.973-2.354-4.745zM8.82 254.082c2.18-1.92 7.706-1.266 11.501.34 1.058.448 2.138 1.013 2.745 1.98.474.757.602 1.672.696 2.558a52.64 52.64 0 0 1 .3 5.557c.003 2.032-.21 4.286-1.713 5.669-2.027 1.863-5.242 1.21-7.895.44-1.496-.432-3.09-.931-4.05-2.145-.704-.89-.96-2.038-1.154-3.151-.643-3.71-2.61-9.328-.43-11.248zm133.22 140.767c8.902-1.785 20.664-3.78 27.82 3.184.537.525 1.048 1.094 1.372 1.77.887 1.852-.027 4.36-1.932 5.164-.957.403-2.033.395-3.073.38-8.905-.123-18.478-.463-25.592-5.77-.868-.647-1.766-1.557-1.612-2.623.187-1.29 1.726-1.846 3.016-2.105zm177.657-3.591c6.62-4.844 12.96-6.627 19.205-7.501 7.747-1.085 20.065-2.621 20.061 3.886 0 2.456-10.93 4.818-12.738 5.27-5.592 1.405-10.832 3.474-16.297 5.57-10.14 3.89-18.26-1.351-10.23-7.225z"/></g><g><g><path fill="#c8dbfb" d="M207.453 370.68c0 1.995-17.303 3.612-38.647 3.612-21.345 0-38.647-1.617-38.647-3.611 0-1.994 17.302-3.611 38.647-3.611 21.344 0 38.647 1.617 38.647 3.61z"/></g><g><path fill="#c8dbfb" d="M406.003 370.68c0 1.995-17.303 3.612-38.647 3.612-21.344 0-38.647-1.617-38.647-3.611 0-1.994 17.303-3.611 38.647-3.611 21.344 0 38.647 1.617 38.647 3.61z"/></g><g><path fill="none" stroke="#c8dbfb" stroke-linecap="round" stroke-linejoin="round" stroke-miterlimit="50" d="M449.012 116.46a53.847 53.847 0 0 0-.357-1.967"/></g><g><path fill="none" stroke="#c8dbfb" stroke-dasharray="3.993 3.993" stroke-linecap="round" stroke-linejoin="round" stroke-miterlimit="50" d="M447.702 110.612c-6.894-23.479-28.878-21.214-48.747-21.173l-352.509.728c-33.275.07-30.055 48.107-4 48.053 14.98-.03 20.676 28.098-5.224 28.151-15.539.033-16.036 19.73-5.589 23.676"/></g><g><path fill="none" stroke="#c8dbfb" stroke-linecap="round" stroke-linejoin="round" stroke-miterlimit="50" d="M33.552 190.566c.635.11 1.301.166 1.998.164"/></g><g><path fill="#5193f4" d="M39.635 189.822a4.788 4.788 0 1 1-9.441 1.61 4.789 4.789 0 1 1 9.44-1.61z"/></g><g><path fill="#5193f4" d="M453.726 118.614a4.79 4.79 0 1 1-9.424-1.719 4.79 4.79 0 0 1 9.424 1.719z"/></g><g><path fill="#5193f4" d="M88.45 154.84c-.69 3.89-1.7 7.69-2.93 11.44-2.65 8.09-6.31 15.88-10.01 23.57-1.93 4.02-9.76 13.32-13.96 15.09.49-10.49.53-22.74-.69-33.33-1.17-10.2 2.5-17.93-1.5-27.39-.51-1.21-1.04-2.42-1.57-3.63-1.99-4.5-3.96-9.02-4.58-13.87-.8-6.15 1.11-13.16 6.43-16.36 3.83-2.3 8.82-2.18 12.91-.37s7.37 5.12 9.86 8.83c6.97 10.36 8.23 23.74 6.04 36.02z"/></g><g><path fill="none" stroke="#0b43a4" stroke-linecap="round" stroke-linejoin="round" stroke-miterlimit="50" d="M69.85 120.866c7.83 11.057 8.51 23.939 9.188 37.47.679 13.533-2.573 27.239-9.258 39.024"/></g><g><path fill="#00ad9f" d="M69.523 324.846c-5.488-4.851-11.041-9.774-15.096-15.873-3.531-5.312-5.812-11.344-8.893-16.93-1.994-3.613-4.348-7.094-5.503-11.057-1.155-3.964-.878-8.657 1.938-11.675 2.937-3.15 7.989-3.631 11.977-2.01 3.988 1.624 7.036 4.977 9.365 8.598a40.99 40.99 0 0 1 6.018 15.928c.78 5.123.58 10.357 1.377 15.476.74 4.77 2.344 9.352 4.365 13.722 1.833 3.964 6.477 11.03 7.662 15.093-3.282 1.644-10.871-9.205-13.21-11.272z"/></g><g><g><path fill="none" stroke="#00ad9f" stroke-linecap="round" stroke-linejoin="round" stroke-miterlimit="50" d="M50.334 274.55c5.218 2.284 7.293 8.508 8.382 14.099 1.239 6.363.964 13.254 3.882 19.044 5.496 10.906 12.65 23.32 17.967 27.029"/></g></g><g><path fill="#0056ec" d="M42.513 309.925c-4.554-1.798-10.636-2.537-13.556 1.394-2.445 3.29-1.179 7.956.51 11.69 1.425 3.154 3.236 6.36 6.243 8.075 2.054 1.172 4.461 1.524 6.808 1.803 6.548.779 13.144 1.16 19.738 1.142 7.643-.022 16.902 3.099 23.225 7.866-8.114-15.085-27.64-25.917-42.968-31.97z"/></g><g><path fill="none" stroke="#0b43a4" stroke-linecap="round" stroke-linejoin="round" stroke-miterlimit="50" d="M34.523 319.731c5.797.246 11.647.654 17.21 2.3 5.69 1.682 27.579 11.726 31 16.002"/></g><g><path fill="#52d2bc" d="M92.19 278.97c-5.926-9.28-16.067-15.76-26.985-17.225-8.06-1.083-16.354.425-24.308-1.253-8.358-1.751-15.898-7.136-20.263-14.485-4.364-7.35-5.5-16.535-3.048-24.723 1.87-6.222 6.14-12.117 12.32-14.113 3.366-1.083 7.051-.934 10.492-.106 3.175.764 6.127 2.092 8.846 3.823 6.223 3.939 11.246 10.004 15.027 16.439 3.43 5.852 11.894 14.963 17.65 20.889 3.377 3.462 5.83 5.83 5.83 5.83 3.951 4.906 2.103 19.073 4.44 24.925z"/></g><g><path fill="none" stroke="#00ad9f" stroke-linecap="round" stroke-linejoin="round" stroke-miterlimit="50" d="M28.11 225.161c19.366 8.744 40.493 20.203 54.228 36.417"/></g><g opacity=".2"><g opacity=".2"><path fill="#5275a0" d="M84.194 259.398s-28.864-23.396-34.95-48.51c6.223 3.94 11.247 10.003 15.027 16.44 3.43 5.85 11.894 14.962 17.65 20.887a512.775 512.775 0 0 1 2.273 11.183z"/></g></g><g opacity=".2"><g opacity=".2"><path fill="#5275a0" d="M85.52 166.28c-2.65 8.09-6.31 15.88-10.01 23.57-1.93 4.02-9.76 13.32-13.96 15.09.49-10.49.53-22.74-.69-33.33-1.17-10.2 2.5-17.93-1.5-27.39-.51-1.21-1.04-2.42-1.57-3.63.37.12.73.25 1.08.4 6.58 2.82 9.62 9.78 10.18 16.54.47 5.58-.54 11.17-1.29 16.72-.35 2.56-.63 5.18-.08 7.69.01.03.02.05.02.08.69 2.99 5.06 2.82 5.62-.21l1.75-9.29c.52-2.78 1.09-5.69 3.37-7.63.9-.77 2.06-1.25 3.24-1.21 1.88.07 3.06 1.17 3.84 2.6z"/></g></g><g><path fill="#7ee8d4" d="M84.198 253.532c-4.56-23.809-6.957-27.477-4.951-33.445 2.555-7.607 1.119-15.254 3.53-22.907 2.41-7.653 4.052-15.883 2.107-23.668-.615-2.46-1.862-5.145-4.818-5.246-1.186-.04-2.342.437-3.244 1.206-2.28 1.942-2.854 4.852-3.375 7.631l-1.741 9.291c-.566 3.022-4.932 3.2-5.623.203l-.017-.075c-.56-2.515-.271-5.133.073-7.686.749-5.555 1.758-11.143 1.296-16.729-.56-6.76-3.601-13.72-10.185-16.534-2.335-.997-4.97-1.224-7.427-.593-6.872 1.764-8.65 8.48-7.643 14.214.71 4.035 2.603 7.746 4.315 11.468 4.18 9.092 1.114 17.43 1.693 27.42 1.597 27.571 36.01 55.45 36.01 55.45z"/></g><g><path fill="none" stroke="#00ad9f" stroke-linecap="round" stroke-linejoin="round" stroke-miterlimit="50" d="M53.538 152.188c3.39 16.94 6.819 34.003 13.4 49.977 1.93 4.685 2.874 10.849 14.043 23.593"/></g><g><path fill="#5193f4" d="M185.78 156.53c-3.51-4.01-6.75-8.09-10.16-12.02-2.21-2.55-4.49-5.04-6.97-7.4-1.23-1.18-2.5-2.32-3.84-3.43-7.92-6.54-16.76-11.97-26.21-16.01-5.7-2.44-11.72-4.45-16.56-8.34-4.84-3.88-8.32-10.26-6.71-16.25 1.17-4.32 4.84-7.68 9.05-9.22 4.2-1.53 8.86-1.41 13.23-.47 12.2 2.63 22.39 11.4 29.32 21.77.12.18.25.37.37.56 5.08 7.75 8.63 16.37 11.72 25.15.99 2.82 1.93 5.66 2.86 8.49 1.4 4.23 5.7 12.98 3.9 17.17z"/></g><g><path fill="none" stroke="#0b43a4" stroke-linecap="round" stroke-linejoin="round" stroke-miterlimit="50" d="M129.973 93.573c13.31 2.538 22.73 11.35 32.602 20.632 9.871 9.28 17.03 21.412 20.383 34.539"/></g><g opacity=".2"><g opacity=".2"><path fill="#5275a0" d="M175.62 144.51c-.11 1.38-.07 2.76.19 4.16-3.33-.76-5.64-5.93-7.16-11.56-1.49-5.47-2.23-11.39-2.46-14.12a61.09 61.09 0 0 1 1.11-17.27c5.08 7.75 8.63 16.37 11.72 25.15-1.06 3.15-1.97 6.34-2.72 9.56-.32 1.37-.57 2.72-.68 4.08z"/></g></g><g><path fill="#52d2bc" d="M198.717 96.46c-1.125 4.991-4.142 9.303-6.796 13.678a107.29 107.29 0 0 0-3.93 7.073 107.547 107.547 0 0 0-8.857 24.224c-.647 2.75-1.01 5.448-.488 8.241-6.563-1.498-9.176-20.146-9.622-25.69-.786-9.982.914-20.209 5.024-29.352 1.794-4.015 4.109-7.955 7.677-10.525 3.558-2.569 8.602-3.472 12.372-1.232 2.273 1.349 3.728 3.59 4.439 6.139.69 2.379.723 5.033.18 7.444z"/></g><g><path fill="none" stroke="#00ad9f" stroke-linecap="round" stroke-linejoin="round" stroke-miterlimit="50" d="M176.13 144.171c-4.08-10.247-1.601-31.936 4.944-45.568 1.973-4.107 4.779-7.957 8.715-10.253"/></g><g opacity=".2"><g opacity=".2"><path fill="#5275a0" d="M198.717 96.46c-1.125 4.991-4.142 9.303-6.796 13.678a107.29 107.29 0 0 0-3.93 7.073c-1.795-3.016-3.016-6.351-3.356-9.834-.552-5.809 1.667-12.032 6.394-15.452 2.209-1.592 4.799-2.495 7.507-2.909.69 2.379.723 5.033.18 7.444z"/></g></g><g><path fill="#00ad9f" d="M236.565 139.863a21.159 21.159 0 0 1-1.699 5.522c-2.91 6.298-9.016 11.703-18.17 16.1 0 0-.51-9.961-.616-12.627-.447-11.416-12.84-17.735-20.677-26.061-3.993-4.247-7.02-9.611-7.583-15.42-.552-5.808 1.668-12.032 6.393-15.452 3.962-2.856 9.144-3.482 14.02-3.111 7.857.627 15.79 3.919 20.675 10.057.213.234.393.478.574.722 2.995 4.089 4.534 9.069 5.66 14.029 1.954 8.59 2.836 17.533 1.423 26.24z"/></g><g><g><path fill="none" stroke="#00ad9f" stroke-linecap="round" stroke-linejoin="round" stroke-miterlimit="50" d="M197.581 98.05c8.577 4.436 17.17 9.8 22.165 18.063 6.968 11.528 5.45 26.528.075 38.88"/></g></g><g><path fill="#52d2bc" d="M380.063 213.515c5.467-9 2.675-20.577 4.577-30.934 1.464-7.962 5.894-15.343 12.232-20.38 3.978-3.16 9.566-5.417 14.06-3.048.974.513 2.132 1.235 3.07.658.56-.344.784-1.038.915-1.682 1.14-5.593-1.549-11.703.648-16.972 1.184-2.837 3.631-4.956 6.223-6.608a33.922 33.922 0 0 1 16.768-5.261c1.573-.064 3.209-.003 4.616.702 2.54 1.274 3.704 4.438 3.363 7.26-.341 2.823-1.898 5.348-3.625 7.607-5.742 7.507-14.155 13.985-15.263 23.37-.141 1.185-.141 2.44.403 3.502.527 1.026 1.506 1.758 2.057 2.77 1.769 3.25-1.647 6.935-4.984 8.533a28.772 28.772 0 0 1-9.717 2.689c-2.316.217-4.933.272-6.508 1.983-2.907 3.158.433 8.207-.177 12.455-.381 2.652-2.304 4.793-4.235 6.65a76.201 76.201 0 0 1-11.7 9.227c-3.396 2.175-6.99 4.098-10 6.782-3.011 2.683-5.444 6.314-5.641 10.343z"/></g><g><path fill="none" stroke="#00ad9f" stroke-linecap="round" stroke-linejoin="round" stroke-miterlimit="50" d="M387.268 204.76c.894-4.361 2.923-8.395 4.932-12.37 3.139-6.21 6.34-12.51 11.083-17.603 3.6-3.867 7.99-6.926 11.652-10.735a39.967 39.967 0 0 0 6.582-9.14c.947-1.808 1.767-3.71 3.045-5.301 1.518-1.891 3.593-3.238 5.398-4.856a23.123 23.123 0 0 0 5.723-7.892"/></g><g><path fill="#5193f4" d="M458.57 219.76c-1.23 4.74-3.06 9.43-6.2 13.19-2.17 2.59-4.87 4.64-7.82 6.31-1.52.87-3.12 1.63-4.73 2.31a56.79 56.79 0 0 1-19.77 4.38c-9.88.37-20.04-1.81-29.52 1.01-4.35 1.29-8.36 3.64-11.65 6.75a28.3 28.3 0 0 0-5.23 6.61l1.29-8.2c2.39-8.82 4.83-17.8 9.71-25.53 3.15-5.01 7.24-9.37 11.59-13.38 6.95-6.42 14.66-12.07 23.17-16.2 6.88-3.34 14.52-5.69 22.12-4.76 7.59.92 15.05 5.72 17.42 12.99 1.52 4.67.86 9.77-.38 14.52z"/></g><g><path fill="none" stroke="#0b43a4" stroke-linecap="round" stroke-linejoin="round" stroke-miterlimit="50" d="M381.4 245.877c7.262-10.742 18.135-18.996 30.434-23.102 7.664-2.558 15.767-3.531 23.53-5.771 7.763-2.239 15.507-6.043 20.057-12.718"/></g><g><path fill="#52d2bc" d="M386.184 324.65c.433-11.029 6.134-21.212 13.058-29.808 5.774-7.168 12.743-13.729 21.349-16.996 2.697-1.023 5.656-1.71 8.457-1.022 2.8.688 5.339 3.085 5.39 5.97.043 2.43-1.59 4.555-3.31 6.276-5.658 5.667-12.971 9.303-19.825 13.445-11.78 7.12-22.976 16.623-27.651 29.571z"/></g><g><path fill="none" stroke="#00ad9f" stroke-linecap="round" stroke-linejoin="round" stroke-miterlimit="50" d="M390.543 314.998c7.199-16.059 25.836-30.417 38.128-32.211"/></g><g><path fill="#00ad9f" d="M381.684 333.418c-.1-1.849 5.929-6.681 7.287-7.913 7.526-6.825 16.473-11.846 25.92-14.812 3.825-1.201 7.887-2.073 11.713-1.149 3.825.923 7.335 4.057 7.71 8.184.365 4.002-2.32 7.917-5.746 9.853-3.426 1.937-7.433 2.23-11.253 2.007-5.904-.344-11.7-1.811-17.625-1.766-5.926.046-14.244.645-18.006 5.596z"/></g><g><g><path fill="none" stroke="#00ad9f" stroke-linecap="round" stroke-linejoin="round" stroke-miterlimit="50" d="M387.822 327.806c12.112-6.562 30.425-10.833 43.72-9.224"/></g></g><g opacity=".2"><g opacity=".2"><path fill="#5275a0" d="M236.565 139.863a21.159 21.159 0 0 1-1.699 5.522c-4.248-9.005-7.986-20.772-8.889-35.214-.244-3.91.85-7.933 2.931-11.3.213.234.393.478.574.722 2.995 4.089 4.534 9.069 5.66 14.029 1.954 8.59 2.836 17.533 1.423 26.24z"/></g></g><g><path fill="#7ee8d4" d="M278.457 139.358c9.044-3.212 18.436-5.774 26.658-10.726 2.487-1.497 4.883-3.237 6.648-5.542 1.764-2.304 2.848-5.242 2.455-8.118-.4-2.923-2.271-5.723-1.641-8.606.415-1.9 1.841-3.385 2.931-4.996 2.593-3.832 3.364-8.842 2.046-13.276-1.418-4.765-4.989-8.577-7.021-13.113a21.89 21.89 0 0 1-1.692-11.903c-7.586.102-14.511 4.246-21.971 5.63-5.706 1.057-11.642.482-17.298 1.781-10.314 2.371-18.745 11.448-20.349 21.91-4.785-.823-9.932.902-13.256 4.44-3.535 3.763-5.524 9.107-5.203 14.26 2.33 37.428 23.758 56.954 23.758 56.954s20.487-27.47 23.935-28.695z"/></g><g><path fill="none" stroke="#00ad9f" stroke-linecap="round" stroke-linejoin="round" stroke-miterlimit="50" d="M258.23 139.096c-.94-9.233 2.284-18.359 5.991-26.869 3.612-8.292 7.768-16.42 13.347-23.54 5.58-7.12 12.67-13.225 21.038-16.656"/></g><g><path fill="none" stroke="#00ad9f" stroke-linecap="round" stroke-linejoin="round" stroke-miterlimit="50" d="M266.277 77.694c-.95 8.231-.285 18.148 1.858 26.152"/></g><g><path fill="none" stroke="#00ad9f" stroke-linecap="round" stroke-linejoin="round" stroke-miterlimit="50" d="M269.676 100.899c9.4-6.03 23.863-9.692 35.014-9.053"/></g><g><path fill="none" stroke="#00ad9f" stroke-linecap="round" stroke-linejoin="round" stroke-miterlimit="50" d="M246.688 102.438c11.317 4.772 11.783 21.414 12.086 26.142"/></g><g><path fill="none" stroke="#00ad9f" stroke-linecap="round" stroke-linejoin="round" stroke-miterlimit="50" d="M261.858 117.999c8.66-6.212 21.173-8.08 30.383-5.763"/></g><g><path fill="none" stroke="#00ad9f" stroke-linecap="round" stroke-linejoin="round" stroke-miterlimit="50" d="M285.483 73.42c-2.604 3.213-3.252 7.034-2.99 9.677"/></g><g><path fill="none" stroke="#00ad9f" stroke-linecap="round" stroke-linejoin="round" stroke-miterlimit="50" d="M284.958 80.751c3.992-2.045 9.329-2.514 15.038-1.082"/></g><g><path fill="#4a49ca" d="M62.297 98.852c1.064-.056 8.318-5.43 11.112-7.24.786-.51 1.585-1.044 2.134-1.803.55-.759.805-1.8.405-2.646-.496-1.052-1.318-2.102-3.395-2.098-3.614.008-4.868 1.196-6.626 3.013-5.813 6.01-3.63 10.774-3.63 10.774z"/></g><g><path fill="#4a49ca" d="M94.821 120.524c3.158 1.42 6.533 2.834 9.968 2.395 1.332-.17 2.786-.776 3.23-2.044.38-1.083-.144-2.325-1.003-3.086-.859-.76-1.992-1.13-3.107-1.402-4.205-1.026-10.107-.458-14.27.724 0 0 3.297 2.566 5.182 3.413z"/></g><g><path fill="#4a49ca" d="M115.624 73.87c-1.409-.89-2.965-2.08-2.964-3.745.002-1.671 1.744-2.944 3.415-2.953 1.671-.01 3.222.903 4.477 2.005 5.315 4.666 4.653 9.986 4.653 9.986s-8.012-4.301-9.581-5.292z"/></g><g><path fill="#4a49ca" d="M119.815 59.638c-1.236-.53-2.513-1.172-3.238-2.306-.353-.55-.553-1.25-.335-1.868.364-1.034 1.01-1.962 3.617-1.49 8.25 1.497 10.047 7.147 10.047 7.147s-7.901-.542-10.091-1.483z"/></g><g><path fill="#4a49ca" d="M143.985 72.135c3.31-.285 6.727-1.934 8.813-4.519.787-.975 1.508-2.052 1.77-3.278.263-1.226-.017-2.632-.966-3.45-1.16-.999-2.996-.838-4.273.004-1.276.843-2.095 2.216-2.76 3.593-.884 1.836-2.584 7.65-2.584 7.65z"/></g><g><path fill="none" stroke="#0b43a4" stroke-linecap="round" stroke-linejoin="round" stroke-miterlimit="50" d="M84.897 192.798l-24.038-21.19c-4.27-3.765-8.63-7.64-11.335-12.648-5.814-10.768-2.462-24.76 5.39-34.145 7.852-9.387 19.353-14.93 30.906-18.962 11.555-4.034 23.58-6.864 34.595-12.198 6.906-3.346 13.85-8.33 15.745-15.767 1.14-4.473.182-9.435-2.54-13.163-2.723-3.728-7.16-6.15-11.767-6.425"/></g><g><path fill="none" stroke="#0b43a4" stroke-linecap="round" stroke-linejoin="round" stroke-miterlimit="50" d="M149.583 64.454c-2.189 6.723-10.717 10.813-14.609 16.637"/></g><g><path fill="none" stroke="#0b43a4" stroke-linecap="round" stroke-linejoin="round" stroke-miterlimit="50" d="M118.964 72.187c1.68 1.773 3.69 3.239 5.155 5.192 3.096 4.129 3.355 10.836-1.225 14.998"/></g><g><path fill="none" stroke="#0b43a4" stroke-linecap="round" stroke-linejoin="round" stroke-miterlimit="50" d="M75.816 109.824c7.07 5.447 16.362 9.078 25.28 9.424"/></g><g><path fill="none" stroke="#0b43a4" stroke-linecap="round" stroke-linejoin="round" stroke-miterlimit="50" d="M59.633 119.746c-3.255-9.598.292-21.096 8.388-27.193"/></g><g><path fill="#4a49ca" d="M318.047 79.191c-.384-1.188-.364-2.647.514-3.535.696-.704 1.864-1.019 2.77-.62 7.029 3.091 6.269 14.057 6.269 14.057s-6.667-.963-9.553-9.902z"/></g><g><path fill="#4a49ca" d="M317.876 99.733c-4.547 8.218 11.615 7.59 17.443 2.75 0 0-13.528-9.824-17.443-2.75z"/></g><g><path fill="#4a49ca" d="M338.31 79.814c-1.097-1.504-1.486-3.744-.292-5.172.89-1.063 2.44-1.391 3.802-1.129 1.36.262 3.4 1.522 4.27 2.603 5.319 6.616 2.819 13.092 2.819 13.092s-8.8-6.931-10.598-9.394z"/></g><g><path fill="#4a49ca" d="M402.495 100.163c-.393-1.28-.3-2.842.694-3.738.628-.566 1.522-.77 2.365-.707.843.064 1.648.37 2.418.722 1.648.753 2.93 2.07 3.721 3.7 2 4.116.642 9.213.642 9.213s-8.86-6-9.84-9.19z"/></g><g><path fill="#4a49ca" d="M382.305 115.244c-2.856-2.51-7.233-3.252-10.716-1.725-.886.39-1.726.937-2.293 1.721-1.276 1.765-.83 4.347.496 6.076 1.325 1.73 3.333 2.782 5.318 3.683 3.596 1.632 9.178 1.96 13.007 2.935 0 0-.016-7.6-5.812-12.69z"/></g><g><path fill="none" stroke="#0b43a4" stroke-linecap="round" stroke-linejoin="round" stroke-miterlimit="50" d="M323.084 80.954c2.378 7.783 9.107 13.656 16.6 16.833 7.492 3.177 15.745 4.015 23.866 4.541 8.121.525 16.339.787 24.192 2.92 7.655 2.077 15.277 6.404 18.562 13.623 3.997 8.786.457 19.292-5.156 27.146-5.613 7.853-13.171 14.183-18.601 22.164-2.494 3.664-4.575 7.954-4.072 12.358.672 5.872 5.618 10.195 10.214 13.908"/></g><g><path fill="none" stroke="#0b43a4" stroke-linecap="round" stroke-linejoin="round" stroke-miterlimit="50" d="M341.804 78.1c5.382 5.953 9.684 15.264 10.73 23.221"/></g><g><path fill="none" stroke="#0b43a4" stroke-linecap="round" stroke-linejoin="round" stroke-miterlimit="50" d="M323.707 101.095c3.077.817 6.195 1.64 9.379 1.647 3.184.008 6.872-1.755 9.161-3.968"/></g><g><path fill="none" stroke="#0b43a4" stroke-linecap="round" stroke-linejoin="round" stroke-miterlimit="50" d="M407.76 100.647c2.884 2.783 4.636 6.706 4.786 10.711.15 4.006-2.072 8.86-4.738 11.85"/></g><g><path fill="none" stroke="#0b43a4" stroke-linecap="round" stroke-linejoin="round" stroke-miterlimit="50" d="M377.596 118.823c5.758 5.301 10.77 9.587 17.173 14.09 2.922 2.055 8.723 4.69 11.299 4.011"/></g><g opacity=".2"><g opacity=".2"><path fill="#5275a0" d="M444.55 239.26c-1.52.87-3.12 1.63-4.73 2.31a56.795 56.795 0 0 1-19.77 4.38c-9.88.37-20.04-1.81-29.52 1.01-4.35 1.29-8.36 3.64-11.65 6.75-.33.16-.66.34-.99.53-.79-6.69 15.89-15.41 20.96-17.68 9.15-4.1 19.35-5.92 29.35-5.12 4.38.35 8.87 1.21 12.48 3.7 1.55 1.07 2.91 2.5 3.87 4.12z"/></g></g><g><path fill="#52d2bc" d="M428.2 235.439c4.377.349 8.866 1.208 12.482 3.699 3.617 2.492 6.16 6.942 5.316 11.25-.982 5.02-6.172 8.286-11.249 8.904-5.077.617-10.15-.78-15.16-1.811a108.103 108.103 0 0 0-33.78-1.545c-2.804.315-5.466.87-7.923 2.307-.79-6.695 15.898-15.41 20.968-17.683 9.148-4.1 19.346-5.918 29.345-5.121z"/></g><g><path fill="none" stroke="#00ad9f" stroke-linecap="round" stroke-linejoin="round" stroke-miterlimit="50" d="M382.228 254.023c8.284-7.281 29.548-12.224 44.586-10.631 4.53.48 9.1 1.832 12.582 4.77"/></g><g><path fill="none" stroke="#0b43a4" stroke-dasharray="4" stroke-linecap="round" stroke-linejoin="round" stroke-miterlimit="50" d="M366.754 172.223v0l80.886-.167c9.49-.02 17.202 7.66 17.22 17.151.02 9.492-7.658 17.203-17.15 17.222l-55.328.114v0"/></g><g><path fill="none" stroke="#0b43a4" stroke-dasharray="4" stroke-linecap="round" stroke-linejoin="round" stroke-miterlimit="50" d="M122.01 231.613v0l-56.567.116c-5.358.012-9.692 4.363-9.68 9.721.01 5.358 4.363 9.692 9.72 9.681l16.493-.034v0"/></g><g><path fill="none" stroke="#c8dbfb" stroke-dasharray="4" stroke-linecap="round" stroke-linejoin="round" stroke-miterlimit="50" d="M31.723 275.42c-19.379.04-19.783 28.945 4.875 28.895 24.658-.052 348.127-.72 363.381-.75 15.253-.033 16.864-23.83-1.994-23.791-37.525.078-38.77-17.82-17.936-17.863"/></g><g><path fill="#5193f4" d="M36.258 274.615a4.788 4.788 0 1 1-9.441 1.61 4.788 4.788 0 0 1 9.44-1.61z"/></g><g><path fill="#0b43a4" d="M389.34 262.041a4.789 4.789 0 1 1-9.44 1.61 4.789 4.789 0 0 1 9.44-1.61z"/></g><g opacity=".2"><g opacity=".2"><path fill="#5275a0" d="M394.558 345.612l-300.89.621a7.268 7.268 0 0 1-7.283-7.254l-.411-199.332a7.268 7.268 0 0 1 7.253-7.284l300.89-.62a7.269 7.269 0 0 1 7.283 7.253l.41 199.333a7.268 7.268 0 0 1-7.252 7.283z"/></g></g><g><path fill="#fff" d="M388.665 341.804l-300.889.62a7.268 7.268 0 0 1-7.283-7.253l-.412-199.333a7.27 7.27 0 0 1 7.254-7.284l300.889-.62a7.27 7.27 0 0 1 7.284 7.253l.411 199.333a7.27 7.27 0 0 1-7.254 7.284z"/></g><g><path fill="#0056ec" d="M387.734 127.936l-299.602.618a7.912 7.912 0 0 0-7.896 7.929l.015 6.88 315.426-.651-.014-6.88a7.912 7.912 0 0 0-7.929-7.896z"/></g><g><path fill="#c8dbfb" d="M88.493 342.425l45.268-.094-.41-199.077-53.18.109.394 191.175c.01 4.365 3.558 7.896 7.928 7.887z"/></g><g><path fill="#0056ec" d="M393.582 135.193l.41 199.333a5.275 5.275 0 0 1-5.258 5.279l-300.9.62a5.278 5.278 0 0 1-5.268-5.257l-.411-199.332a5.239 5.239 0 0 1 1.535-3.73 5.237 5.237 0 0 1 3.723-1.55l300.884-.621h.017a5.277 5.277 0 0 1 5.268 5.258zm-5.286-7.258l-300.887.62a7.27 7.27 0 0 0-7.255 7.285l.412 199.332a7.27 7.27 0 0 0 7.268 7.254h.016l300.889-.621a7.268 7.268 0 0 0 7.254-7.283l-.411-199.333a7.27 7.27 0 0 0-7.27-7.254z"/></g><g><path fill="#fff" d="M126.126 327.207l-34.886.072a2.786 2.786 0 0 1-2.791-2.781l-.002-.345a2.787 2.787 0 0 1 2.781-2.793l34.887-.072a2.786 2.786 0 0 1 2.791 2.781l.001.346a2.786 2.786 0 0 1-2.78 2.792z"/></g><g><path fill="#fff" d="M121.931 192.149l-29.7.062a5.106 5.106 0 0 1-5.117-5.096l-.062-29.701a5.107 5.107 0 0 1 5.096-5.117l29.701-.062a5.108 5.108 0 0 1 5.117 5.097l.061 29.7a5.106 5.106 0 0 1-5.096 5.117z"/></g><g><path fill="#c8dbfb" d="M249.082 281.12l-103.479.214a3.64 3.64 0 0 1-3.647-3.633l-.001-.45a3.641 3.641 0 0 1 3.632-3.649l103.478-.212a3.639 3.639 0 0 1 3.648 3.631l.001.452a3.64 3.64 0 0 1-3.632 3.647z"/></g><g><path fill="#c8dbfb" d="M243.102 163.222l-81.775.168a3.639 3.639 0 0 1-3.647-3.632l-.001-.451a3.64 3.64 0 0 1 3.632-3.647l81.775-.17a3.641 3.641 0 0 1 3.648 3.633v.452a3.64 3.64 0 0 1-3.632 3.647z"/></g><g><path fill="#c8dbfb" d="M372.37 245.923l-109.029.225a3.641 3.641 0 0 1-3.648-3.633v-.451a3.641 3.641 0 0 1 3.632-3.648l109.028-.224a3.64 3.64 0 0 1 3.648 3.632l.001.452a3.64 3.64 0 0 1-3.632 3.647z"/></g><g><path fill="#c8dbfb" d="M249.114 297.103l-103.478.213a3.639 3.639 0 0 1-3.647-3.631v-.451a3.64 3.64 0 0 1 3.631-3.648l103.478-.214a3.64 3.64 0 0 1 3.648 3.632l.001.452a3.64 3.64 0 0 1-3.633 3.647z"/></g><g><path fill="#c8dbfb" d="M249.148 313.086l-103.478.214a3.639 3.639 0 0 1-3.647-3.632l-.001-.451a3.64 3.64 0 0 1 3.632-3.648l103.478-.213a3.64 3.64 0 0 1 3.648 3.632v.452a3.64 3.64 0 0 1-3.632 3.646z"/></g><g><path fill="#c8dbfb" d="M370.158 323.51l-104.285.216a6.012 6.012 0 0 1-6.025-6l-.09-44.788a6.011 6.011 0 0 1 5.998-6.025l104.285-.215a6.012 6.012 0 0 1 6.024 6l.092 44.789a6.012 6.012 0 0 1-5.999 6.024z"/></g><g><path fill="#c8dbfb" d="M97.538 135.8a2.548 2.548 0 1 1-5.098.012 2.55 2.55 0 1 1 5.098-.011z"/></g><g><path fill="#c8dbfb" d="M108.33 135.779a2.549 2.549 0 1 1-5.098.01 2.549 2.549 0 0 1 5.097-.01z"/></g><g><path fill="#c8dbfb" d="M119.12 135.756a2.549 2.549 0 1 1-5.097.01 2.549 2.549 0 0 1 5.098-.01z"/></g><g><path fill="#c8dbfb" d="M153.717 159.54a7.371 7.371 0 1 1-14.743.03 7.371 7.371 0 0 1 14.743-.03z"/></g><g><path fill="#fff" d="M124.002 198.378l-32.647.067a1.373 1.373 0 0 1-1.377-1.37v-.17a1.373 1.373 0 0 1 1.37-1.377l32.648-.067a1.374 1.374 0 0 1 1.377 1.371v.17a1.373 1.373 0 0 1-1.371 1.376z"/></g><g><path fill="#fff" d="M124.015 204.612l-32.648.067a1.373 1.373 0 0 1-1.376-1.37v-.17a1.372 1.372 0 0 1 1.37-1.377l32.648-.067a1.373 1.373 0 0 1 1.376 1.37l.001.171a1.375 1.375 0 0 1-1.37 1.376z"/></g><g><path fill="#c8dbfb" d="M161.397 217.793l-9.233.094.068 38.678-7.966.016a5.09 5.09 0 0 1-5.101-5.079l-.147-71.526a5.144 5.144 0 0 1 5.133-5.155l17.145-.044z"/></g><g><path fill="#c8dbfb" d="M221.287 175.662a5.019 5.019 0 0 1 5.011 5.001l.144 69.737a5.017 5.017 0 0 1-5 5.022l-76.268.157a5.02 5.02 0 0 1-5.01-5l-.145-69.738a5.018 5.018 0 0 1 5.001-5.022l76.257-.157.01-1zm-.013-1l-76.256.157a6.012 6.012 0 0 0-5.999 6.024l.144 69.737a6.011 6.011 0 0 0 6.011 6h.013l76.256-.158a6.011 6.011 0 0 0 6-6.024l-.145-69.737a6.011 6.011 0 0 0-6.01-5.999z"/></g><g><path fill="#c8dbfb" d="M348.628 232.06l-101.721-22.989a6.011 6.011 0 0 1-4.538-7.189l11.443-50.629a6.01 6.01 0 0 1 7.188-4.537l101.72 22.988a6.013 6.013 0 0 1 4.539 7.19l-11.443 50.628a6.01 6.01 0 0 1-7.188 4.538z"/></g><g><path fill="#0056ec" d="M151.763 369.76l-14.233.03-3.483-18.133 21.124-.043z"/></g><g><path fill="#c8dbfb" d="M137.987 351.648c.003 1.48-.279 3.964.706 4 .985.037.578-2.357 1.701-2.293.716.041-.335 7.88 2.375 8.067 1.863.13 1.522-3.843 1.714-6.33.13-1.683 2.284-1.353 2.302-.24.02 1.245-.06 2.08 0 3.496.101 2.366 3.74 1.738 3.61-1.424-.13-3.163-.008-5.3-.008-5.3z"/></g><g><path fill="#0c2340" d="M134.58 362.6a3.744 3.744 0 0 1-.84-.086c-1.049-.231-1.785-.782-2.188-1.64-1.45-3.075 2.37-8.84 2.518-9.095l.2 1.037c-.036.06-3.356 5.014-2.052 7.779.31.657.862 1.066 1.687 1.248.228.05.467.074.715.073 5.126-.008 13.89-9.564 13.985-9.673.358-.431 1.028-.025.79.337-.4.46-9.305 10.009-14.815 10.02z"/></g><g opacity=".2"><g opacity=".2"><path fill="#5275a0" d="M284.147 114.624c-20.23-.773-48.077 14.187-38.198 50.766-.216 3.093 1.636 5.299 3.606 4.695 1.97-.605.234-6.467.234-6.467 3.369-27.196 9.669-31.9 20.364-31.803l25.09-.05c6.2.913 17.472 5.25 19.164 27.02l6.246 1.154c.485-15.725-3.32-44.046-36.507-45.315z"/></g></g><g><path fill="#ef832b" d="M284.147 111.438c-20.23-.773-48.077 14.187-38.198 50.765l3.84-1.77c3.369-27.196 9.669-31.901 20.364-31.803l25.09-.052c6.2.914 17.774 6.417 19.465 28.187l5.944-.012c.486-15.726-3.32-44.046-36.506-45.315z"/></g><g><path fill="#ffb9a3" d="M280.009 112.033l-3.004 6.604s.358 3.72 4.008 3.642c3.649-.078 4.138-1.764 4.138-1.764l.475-7.58z"/></g><g><path fill="#ffb9a3" d="M295.453 106.526c-3.425 6.055-4.942 7.939-9.42 8.849-5.8 1.179-12.304-2.732-9.28-12.373 2.464-7.861 6.195-6.65 9.85-6.353 3.654.297 12.55 3.335 8.85 9.877z"/></g><g><path fill="#0c2340" d="M281.839 101.749c-.91-.474-2.081-.071-2.787.673-.727.765-1.078 1.91-.77 2.92-1.401.02-2.631 1.394-2.498 2.79-.958-2.234-.44-4.558-.63-6.845-.188-2.288.063-4.774 1.544-6.525.608-.718 1.39-1.27 2.222-1.712 3.154-1.676 7.118-1.732 10.318-.146.664.329 2.325 1.375 4.643.815 4.418-1.07 7.003 1.919 4.349 4.718.852.308 1.787.688 2.173 1.508.099.21.15.472.019.663-.093.132-.252.2-.405.25a4.816 4.816 0 0 1-2.325.186c.297.254 1.937.352 2.43 1.306 1.319 2.539-3.901 1.257-4.696 1.003.908.17 3.292 2.072 2.529 3.377-.15.257-3.37 2.132-6.752-1.797-.787-.914-1.768-1.758-2.933-2.069-.914-.244-1.871.094-2.757.427-.646.245-2.296 1.248-2.77.65-.52-.656.15-1.668-.904-2.192z"/></g><g><path fill="#ffb9a3" d="M315.348 156.77c-.896 3.086-1.804 3.393-.717 3.884 1.088.492 1.967-1.238 1.967-1.238l5.018.998s-1.132-3.259-1.923-3.653c-.791-.393-4.345.01-4.345.01z"/></g><g><path fill="#ffb9a3" d="M249.79 160.433c.654 1.628.835 1.64 1.748 3.596 1.746 3.74-2.343 9.655-4.882 3.197-.695-1.77-.708-5.023-.708-5.023z"/></g><g><path fill="#0c2340" d="M288.984 93.43c3.428.186 7.65-2.235 10.337.874.247.286.747-.093.527-.407-2.567-3.686-7.337-.944-10.864-1.037-.368-.01-.364.55 0 .57z"/></g><g><path fill="#0c2340" d="M290.361 91.538c-2.345.407-4.604-.697-6.953-.33-1.91.3-3.612 1.279-5.055 2.534-.369.32.114.952.526.68 2.02-1.33 3.961-2.477 6.481-2.293 1.83.134 3.385.675 5.2.133.471-.141.27-.805-.199-.724z"/></g><g><path fill="#0c2340" d="M277.022 94.738c-1.65 1.026-2.602 2.397-2.797 4.373-.14 1.416-.183 4.673 1.248 5.473.343.19.702-.261.422-.546-.918-.931-.999-3.441-.934-4.624.101-1.813.86-3.192 2.297-4.272.235-.175.027-.568-.236-.404z"/></g><g><path fill="#0c2340" d="M302.394 100.369c-.848-1.472-3.021-2.773-4.69-1.84-.262.148-.138.548.15.554.73.015 1.397-.08 2.114.139a3.685 3.685 0 0 1 1.974 1.41c.19.272.623.034.452-.263z"/></g><g><path fill="#0b43a4" d="M191.116 252.917c10.605 3.896 19.816 16.064 17.703 24.908-2.388 9.989-9.279 14.298-9.279 14.298l-2.172-4.011s5.51-8.614 5.031-12.681c-.766-6.515-8.992-10.866-8.992-10.866z"/></g><g><path fill="#0c2340" d="M165.005 365.64s-6.514 2.63-8.142 4.115l12.902-.025-.01-4.1z"/></g><g><path fill="#0c2340" d="M193.515 365.389s1.849 2.144 2.189 4.29l-8.803.018c.152-1.485.784-2.907 1.64-4.298z"/></g><g><path fill="#047f76" d="M194.05 365.58l-6.01.01c.12-7.08-1.34-31.21-2.75-49.25-.83-10.58-1.65-19.08-2.13-20.8l3.22-.71 12.15-2.7c2.08 9.5-2.72 53.12-4.48 73.45z"/></g><g><path fill="#009790" d="M171.96 295.16c-4.686 7.384-5.9 60.742-7.861 70.632l5.7.323s6.546-33.642 20.489-71.46z"/></g><g opacity=".2"><g opacity=".2"><path fill="#5275a0" d="M192.69 294.65a487.921 487.921 0 0 0-7.4 21.69c-.83-10.58-1.65-19.08-2.13-20.8l3.22-.71z"/></g></g><g><path fill="#009790" d="M171.96 295.16c-4.686 7.384-5.9 60.742-7.861 70.632l5.7.323s6.546-33.642 20.489-71.46z"/></g><g><path fill="#ffb9a3" d="M175.543 235.59s-3.649 13.906 5.466 13.888l-.54 3.553 6.923.757-1.496-4.951s1.368-8.743 1.46-10.321c.17-2.948-8.09-8.144-11.812-2.925z"/></g><g><path fill="#0c2340" d="M153.025 231.352l-2.686.005-.024-11.349 2.686-.006z"/></g><g><path fill="#0056ec" d="M159.369 219.99l-15.422.03a1.953 1.953 0 0 1-1.957-1.949l-.001-.404a1.953 1.953 0 0 1 1.95-1.958l15.42-.03a1.956 1.956 0 0 1 1.959 1.95v.403a1.954 1.954 0 0 1-1.95 1.958z"/></g><g><path fill="#ffb9a3" d="M149.591 234.317c-.073-2.574-2.196-1.9-1.026-6.1.723-2.597 6.086.416 5.418 2.218-.667 1.801-1.437 4.65-1.437 4.65z"/></g><g><path fill="#0056ec" d="M181.075 252.212c-13.63.903-14.527 5.497-20.627 4.778-9.028-1.063-7.45-17.83-6.333-23.841l-5.392.009s-9.72 38.194 20.98 31.132c-1.18 6.69 6.455 17.615-.947 30.876 11.654 3.165 22.528 3.942 31.84-.063-1.631-2.196 3.34-24.387-6.394-40.362-1.901-3.118-12.13-2.594-13.127-2.53z"/></g><g><path fill="#0056ec" d="M181.075 252.212c-13.63.903-14.527 5.497-20.627 4.778-9.028-1.063-7.45-17.83-6.333-23.841l-5.392.009s-9.72 38.194 20.98 31.132c-1.18 6.69 6.455 17.615-.947 30.876 11.654 3.165 22.528 3.942 31.84-.063-1.631-2.196 3.34-24.387-6.394-40.362-1.901-3.118-12.13-2.594-13.127-2.53z"/></g><g><path fill="#ef832b" d="M179.197 238.256c.889.227 1.923.397 2.398 1.152.309.49.287 1.1.257 1.67.163-.596.825-1.027 1.464-.953.64.073 1.176.643 1.188 1.26.005.29-.091.572-.198.844a10.148 10.148 0 0 1-1.014 1.929c1.114.41 2.046 3.666 2.603 4.679 1.873-.47 6.038-2.078 6.4-8.71.17-3.09-.771-6.787-4.122-8.845-2.367-1.452-6.294-1.472-9.003-.78-2.198.562-5.703 2.755-4.07 5.32.826 1.295 2.63 2.059 4.097 2.434z"/></g><g><path fill="#ef832b" d="M190.872 234.033c1.27-.422 2.878-.198 3.64.861.595.827.541 1.913.734 2.9.092.475.261.962.63 1.29.442.391 1.082.486 1.683.518 1.467.078 2.953-.107 4.4.138 1.446.246 2.925 1.063 3.337 2.415.228.748.104 1.57.377 2.303.41 1.1 1.582 1.726 2.603 2.366a16.958 16.958 0 0 1 5.353 5.328c.847 1.35 1.498 2.85 1.601 4.42.102 1.571 1.235 3.647.934 5.194-.326 1.668-1.967 3.926-5.21 4.97-5.603 1.803-7.378 2.584-12.747-.606-.647-.385-1.912-1.695-2.497-2.162-.459-.368-.75-.899-.91-1.452-.449-1.54.07-3.2.873-4.602.805-1.402 1.89-2.64 2.708-4.034.492-.838.894-1.769.847-2.729-.017-.359-.108-.735-.369-.993-.226-.224-.55-.329-.868-.392-1.179-.23-2.476.014-3.544-.515-1.039-.516-1.608-1.77-1.293-2.85.211-.722.757-1.329.912-2.063.224-1.055-.438-2.14-1.357-2.759-.92-.618-2.053-.858-3.16-1.04-.545-.09-1.116-.179-1.56-.497-.547-.393-.798-1.079-.79-1.735.023-2.073 1.712-3.62 3.673-4.274z"/></g><g><path fill="#ef832b" d="M189.867 239.622c6.743 1.46-1.768 7.85 1.796 10.907 1.016.872 2.201.597 3.392.762 4.578.633 2.075 3.742 1.763 6.18-.047.366.562.442.644.086.388-1.684 1.935-3.74 1.137-5.53-.702-1.579-2.44-1.394-3.867-1.437-1.787-.054-3.76.003-3.09-3.555.15-.79.782-1.594 1.09-2.338.354-.858.591-1.71.397-2.647-.327-1.588-1.652-2.52-3.166-2.775-.224-.037-.325.297-.096.347z"/></g><g><path fill="#ef832b" d="M175.972 231.37c5.2-2.64 10.383-2.114 14.773 1.758.299.262.702-.139.437-.437-3.853-4.336-10.705-5.102-15.352-1.565-.141.107-.024.327.142.243z"/></g><g><path fill="#ffb9a3" d="M350.634 247.68l-2.254 4.532 5.508 2.252.588-5.217z"/></g><g><path fill="#ffb9a3" d="M353.959 232.93c-12.492 5.437-7.374 18.616.23 17.068 3.701-.753 5.575-12.67 5.575-12.67z"/></g><g><path fill="#4a49ca" d="M358.108 231.055c-.41-.765-.8-1.58-1.477-2.123-.676-.544-1.749-.716-2.384-.125-.84.78-.349 2.244.503 3.014-.733.088-1.603-.417-2.143.086-.408.38-.267 1.057-.032 1.565a6.97 6.97 0 0 0 2.56 2.935c-.634.36-1.369 1.055-.989 1.677.106.172.282.29.386.464.242.404.008.917-.236 1.32a23.85 23.85 0 0 1-1.273 1.89c.43-.588 1.476-.346 1.79.312.315.657.041 1.469-.445 2.01-.27.303-.614.554-1.008.645-.344.079-1.856 4.76-.676 5.677 1.46 1.132 6.424.149 7.142-1.131.718.779 1.77 1.369 2.81 1.162 1.038-.206 1.831-1.488 1.271-2.387 1.123.414 2.49.049 3.256-.871.766-.92.88-2.33.268-3.36.613-.184.736-1.012.58-1.632a3.772 3.772 0 0 0-2.586-2.656c.633.01 1.135-.626 1.165-1.258.03-.632-.298-1.228-.697-1.72-1.174-1.445-2.56-1.832-4.294-2.051-1.752-.22-2.717-2.004-3.49-3.443z"/></g><g><path fill="#0c2340" d="M346.402 364.772s-7.309 3.51-8.29 4.604c0 0 14.381.647 15.507-.033 1.125-.678-2.303-4.58-2.303-4.58z"/></g><g><path fill="#0c2340" d="M373.593 360.805s-6.425 4.946-7.157 6.22c0 0 15.163-2.251 15.163-3.241 0-.991-3.201-4.006-3.201-4.006z"/></g><g><path fill="#d8742a" d="M353.47 297.01c-.271 1.487-10.277 40.992 18.354 64.676l8.294-1.902s-9.652-9.053-14.201-25.345c-4.301-15.407-.885-16.918 1.695-25.404 2.855-9.392.73-16.211.73-16.211z"/></g><g><path fill="#ef832b" d="M339.785 296.89c-4.539 10.848-12.332 47.816 4.652 68.632l8.482-.018s-6.68-7.322-7.428-24.31c-.746-16.988 3.572-24.446 6.62-30.051 3.045-5.606 5.864-15.132 5.864-15.132z"/></g><g><path fill="#0b43a4" d="M333.8 229.64c-2.253 7.944-2.994 22.62 8.292 28.533l7.555-1.841s-13.618-7.14-10.701-25.184z"/></g><g><path fill="#0056ec" d="M312.99 225.573l5.864-.724s-.706 24.623 27.731 26.697c21.707 1.583 23.413 42.318 23.413 42.318-6.999 4.712-18.745 6.14-33.795 5.06 0 0 .963-29.062-1.428-37.017 0 0-23.626-7.434-21.785-36.334z"/></g><g><path fill="#ffb9a3" d="M305.82 221.103c-.992 1.15 3.151 2.61 7.17 4.47l5.146-.635s.06-1.027-.004-2.1c-.065-1.07-.602-1.681-1.212-.761-.61.919-3.212 1.23-4.438.39-1.226-.84-5.669-2.513-6.662-1.364z"/></g><g><path fill="#ffb9a3" d="M333.8 229.64c-1.885-1.854-1.385-1.741-1.385-1.741l5.75 1.3s1.266-2.807 2.337-2.885c1.07-.08-.807 1.933-.377 2.68.43.745-1.18 2.154-1.18 2.154z"/></g><g><path fill="#4a49ca" d="M361.337 233.767c1.178.3 2.384.42 3.359 1.225.968.798 1.406 2.167.707 3.28-.327.523.45.93.803.47.896-1.168.653-2.772-.247-3.875-1.037-1.274-2.966-1.8-4.551-1.63-.283.03-.387.449-.071.53z"/></g><g><path fill="#4a49ca" d="M366.537 244.435c.78.458 1.435 1.203 1.104 2.166-.308.892-1.215 1.424-1.943 1.935-.35.246-.049.785.34.58 1.078-.57 2.222-1.373 2.39-2.686.147-1.147-.622-2.02-1.576-2.535-.353-.19-.663.335-.315.54z"/></g><g><path fill="#4a49ca" d="M353.404 250.395c2.65 1.647 6.397 1.38 8.588-.937.27-.285-.095-.826-.44-.57-2.396 1.775-5.116 2.35-7.93 1.136-.249-.107-.459.222-.218.371z"/></g><g><path fill="#4a49ca" d="M366.884 235.507c1.52 1.446-.003 3.428-.98 4.669-.213.274.126.643.394.393.869-.813 1.737-1.706 1.856-2.955.087-.937-.297-1.831-1.133-2.286-.111-.06-.234.087-.137.179z"/></g><g><path fill="#0b43a4" d="M197.727 52.822l-2.346-5.729 22.63-8.592z"/></g><g><path fill="#5193f4" d="M198.867 49.291l19.144-10.79-13.326 13.536z"/></g><g><path fill="#5193f4" d="M190.202 44.76l27.809-6.259-22.63 8.592z"/></g><g><path fill="#0056ec" d="M198.867 49.291l-1.14 3.532 3.454-2.44z"/></g><g><path fill="none" stroke="#c8dbfb" stroke-dasharray="4" stroke-linecap="round" stroke-linejoin="round" stroke-miterlimit="50" d="M195.068 52.056c-5.907-.999-13.927 4.975-10.478 11.2 1.175 2.118 7.232 1.198 6.78-1.144-.214-1.12-1.587-1.598-2.721-1.468-6.604.758-6.867 6.292-6.574 7.702 1.512 7.28 12.668 4.816 16.419 3.79"/></g></g></g></svg>