<?xml version="1.0"?>
<svg xmlns="http://www.w3.org/2000/svg" id="_x33_0" enable-background="new 0 0 64 64" height="512px" viewBox="0 0 64 64" width="512px" class=""><g><g><g><path d="m54.361 17h2.639v-6h-2.639c-.48 0-.905-.307-1.128-.842-.207-.494-.123-1.031.216-1.367l1.867-1.859-4.248-4.248-1.858 1.867c-.337.338-.874.422-1.41.198-.493-.205-.8-.629-.8-1.11v-2.639h-6v2.639c0 .48-.307.905-.842 1.128-.494.206-1.032.122-1.367-.216l-1.859-1.867-4.248 4.248 1.867 1.858c.338.337.423.874.198 1.41-.205.493-.629.8-1.11.8h-2.639v6h2.639c.48 0 .905.307 1.127.842.15.357.151.743.003 1.058l-.381.811.559.342 1.224-1.224c.53-.53 1.25-.828 2-.828 1.563-.001 2.829 1.265 2.829 2.827 0 .75-.298 1.47-.828 2l-.262.262.141.086.195.095c.466.211.754.625.754 1.09v2.639h6v-2.639c0-.48.307-.906.842-1.128.492-.208 1.03-.123 1.367.216l1.859 1.867 4.248-4.248-1.867-1.858c-.338-.337-.423-.874-.198-1.41.205-.493.629-.8 1.11-.8zm-10.361 3c-3.31 0-6-2.69-6-6s2.69-6 6-6 6 2.69 6 6-2.69 6-6 6z" fill="#f0bc5e" data-original="#F0BC5E" class="active-path" style="fill:#0055D9" data-old_color="#f0bc5e"/></g><g><g><path d="m61.707 35.121-8.828-8.828 10.3-1.472z" fill="#f0bc5e" data-original="#F0BC5E" class="active-path" style="fill:#0055D9" data-old_color="#f0bc5e"/></g></g><g><path d="m44 17c1.654 0 3-1.346 3-3s-1.346-3-3-3-3 1.346-3 3 1.346 3 3 3zm0-4c.551 0 1 .449 1 1s-.449 1-1 1-1-.449-1-1 .449-1 1-1z" data-original="#000000" class="" style="fill:#000000" data-old_color="#000000"/><path d="m57 39v22h-2v-18h-6v18h-2v-14h-6v14h-2v-10h-6v10h-5c0-1.04-.409-1.98-1.061-2.692l-.334-3.499 15.395-15.395 4 4 12-12-1.414-1.414-10.586 10.586-4-4-15.642 15.642-1.358-14.228v-7.847l5.567.795c.241.035.483.052.726.052 1.368 0 2.654-.533 3.621-1.5l5.964-5.964c.724-.723 1.122-1.685 1.122-2.707 0-.043-.011-.084-.013-.127.638.192 1.313.298 2.013.298 3.86 0 7-3.14 7-7s-3.14-7-7-7-7 3.14-7 7c0 1.092.259 2.123.707 3.045-.845.103-1.631.465-2.243 1.076l-4.749 4.749-8.883-2.665-.518-2.073c1.608-.847 2.686-2.523 2.686-4.411v-5.747c1.207-.913 2-2.347 2-3.974 0-1.654-1.346-3-3-3h-6.184c-4.861 0-8.816 3.955-8.816 8.817 0 2.955 1.468 5.697 3.926 7.335l2.074 1.383v1.663l-2.735.608c-3.689.819-6.265 4.031-6.265 7.809v12.385c0 .732.212 1.409.556 2h-2.556c-1.103 0-2 .897-2 2v8c0 1.103.897 2 2 2h4.969l-.793 3.17c-.726.725-1.176 1.726-1.176 2.83 0 1.103.897 2 2 2h6c1.103 0 2-.897 2-2 0-.925-.329-1.767-.858-2.445l.974-3.896c.533-.36.884-.969.884-1.659v-1.876l.225-.9 1.66 8.299c-.545.683-.885 1.537-.885 2.477 0 1.103.897 2 2 2h43v-24zm-13-30c2.757 0 5 2.243 5 5s-2.243 5-5 5-5-2.243-5-5 2.243-5 5-5zm-5.829 10c1.009 0 1.829.82 1.829 1.829 0 .488-.19.947-.536 1.293l-.464.464-2.586-2.586.464-.464c.346-.346.805-.536 1.293-.536zm-20.859 4.274-1.229 1.229-1.847-2.309.634-.141zm3.973-1.145.898.269-.57 1.141-1.043-.695zm.715-8.408c0 1.425-1.014 2.662-2.412 2.942l-1.785.357.393 1.961 1.207-.242.489 1.955-1.09 1.09-2.802-1.402v-10.382c0-.551.449-1 1-1h4c.342 0 .677-.035 1-.101zm-8.964 1.767c-1.901-1.267-3.036-3.387-3.036-5.672 0-3.758 3.058-6.816 6.816-6.816h6.184c.551 0 1 .449 1 1 0 1.654-1.346 3-3 3h-4c-1.654 0-3 1.346-3 3v6.131zm-1.338 7.27.363-.081 3.856 4.82 3.21-3.21 3.26 2.174 1.74-3.478 7.157 2.147 3.716-3.716 2.586 2.586-4.086 4.086c-.693.694-1.667 1.024-2.648.883l-5.852-.836v-1.133h-2l.004 10h-10.004v-8h-2v10h-4v-10.385c0-2.834 1.932-5.242 4.698-5.857zm-4.698 18.242h4c0 1.103-.897 2-2 2s-2-.897-2-2zm-4 4h12l.001 8h-12.001zm7.031 10h3.938l-.567 2.267c-.438-.165-.907-.267-1.402-.267h-2c-.165 0-.322.029-.481.049zm-2.031 6c0-1.103.897-2 2-2h2c1.103 0 2 .897 2.001 2zm11.553-19.895c-1.267.634-2.243 1.699-2.781 2.987-.332-.645-.997-1.092-1.772-1.092h-2.556c.344-.591.556-1.268.556-2v-2h10.091l1.722 18.084c-.263-.055-.534-.084-.813-.084h-2c-.469 0-.913.096-1.331.245l-2.311-11.554.07-.279c.274-1.095 1.01-2.013 2.02-2.518zm.447 19.895c0-1.103.897-2 2-2h2c1.103 0 2 .897 2 2zm31-16h2v16h-2zm-8 4h2v12h-2zm-8 4h2v8h-2zm26 8h-2v-20h2z" data-original="#000000" class="" style="fill:#000000" data-old_color="#000000"/><path d="m41 29h2v2h-2z" data-original="#000000" class="" style="fill:#000000" data-old_color="#000000"/><path d="m45 29h2v2h-2z" data-original="#000000" class="" style="fill:#000000" data-old_color="#000000"/><path d="m49 29h2v2h-2z" data-original="#000000" class="" style="fill:#000000" data-old_color="#000000"/><path d="m37 29h2v2h-2z" data-original="#000000" class="" style="fill:#000000" data-old_color="#000000"/></g></g><style xmlns=""/></g> </svg>
